<svg xmlns="http://www.w3.org/2000/svg" width="64" height="53" fill="none" xmlns:v="https://vecta.io/nano"><path d="M46.83 52.258H22.47c-1.47 0-2.39-1.586-1.664-2.862L33.02 27.954c.32-.564.335-1.252.037-1.828L20.98 2.795c-.668-1.29.3-2.827 1.743-2.794L46.83.542c.662.015 1.27.37 1.606.94l14.505 24.57c.362.613.354 1.377-.022 1.983L48.456 51.353c-.35.563-.965.905-1.627.905z" fill="url(#A)"/><path d="M1.048 26.395l12.9-22.36a1.28 1.28 0 0 1 2.198-.022l7.76 12.845c.233.385.245.864.034 1.26l-4.438 8.322c-.203.38-.2.84.01 1.217l4.403 7.98c.227.41.2.913-.045 1.308L16.133 48.95a1.28 1.28 0 0 1-2.163-.028L1.063 27.696c-.242-.398-.248-.897-.015-1.3z" fill="url(#A)"/><defs><linearGradient id="A" x1="-1.086" y1="-30.942" x2="105.334" y2="10.718" gradientUnits="userSpaceOnUse"><stop stop-color="#4654d3"/><stop offset="1" stop-color="#c51593"/></linearGradient></defs></svg>