<svg width="183" height="75" viewBox="0 0 183 75" fill="none" xmlns="http://www.w3.org/2000/svg">
<g filter="url(#filter0_d)">
<rect x="15" y="11" width="153" height="45" rx="5" fill="url(#paint0_radial)"/>
</g>
<path d="M68.05 40V29.35H74.5V30.925H69.85V33.715H74.05V35.29H69.85V38.425H74.65V40H68.05ZM79.5653 40.225C79.0453 40.225 78.5603 40.12 78.1103 39.91C77.6703 39.7 77.2853 39.41 76.9553 39.04C76.6253 38.67 76.3653 38.235 76.1753 37.735C75.9953 37.235 75.9053 36.695 75.9053 36.115C75.9053 35.525 76.0003 34.975 76.1903 34.465C76.3803 33.955 76.6453 33.51 76.9853 33.13C77.3253 32.75 77.7203 32.455 78.1703 32.245C78.6303 32.035 79.1253 31.93 79.6553 31.93C80.1753 31.93 80.6503 32.04 81.0803 32.26C81.5103 32.48 81.8653 32.79 82.1453 33.19V28.84H83.8703V40H82.2953L82.2203 38.74C81.9403 39.2 81.5703 39.565 81.1103 39.835C80.6503 40.095 80.1353 40.225 79.5653 40.225ZM79.9253 38.665C80.3553 38.665 80.7403 38.555 81.0803 38.335C81.4203 38.105 81.6853 37.795 81.8753 37.405C82.0753 37.015 82.1753 36.575 82.1753 36.085C82.1753 35.585 82.0753 35.14 81.8753 34.75C81.6853 34.36 81.4203 34.055 81.0803 33.835C80.7403 33.605 80.3553 33.49 79.9253 33.49C79.4953 33.49 79.1103 33.605 78.7703 33.835C78.4303 34.055 78.1603 34.36 77.9603 34.75C77.7703 35.14 77.6753 35.585 77.6753 36.085C77.6753 36.575 77.7703 37.015 77.9603 37.405C78.1603 37.795 78.4303 38.105 78.7703 38.335C79.1103 38.555 79.4953 38.665 79.9253 38.665ZM87.6329 29.965C87.6329 30.155 87.5829 30.33 87.4829 30.49C87.3929 30.65 87.2679 30.78 87.1079 30.88C86.9479 30.97 86.7729 31.015 86.5829 31.015C86.3929 31.015 86.2179 30.97 86.0579 30.88C85.8979 30.78 85.7679 30.65 85.6679 30.49C85.5779 30.33 85.5329 30.155 85.5329 29.965C85.5329 29.775 85.5779 29.6 85.6679 29.44C85.7679 29.28 85.8979 29.155 86.0579 29.065C86.2179 28.965 86.3929 28.915 86.5829 28.915C86.7729 28.915 86.9479 28.965 87.1079 29.065C87.2679 29.155 87.3929 29.28 87.4829 29.44C87.5829 29.6 87.6329 29.775 87.6329 29.965ZM85.7279 40V32.155H87.4529V40H85.7279ZM92.5567 40.225C91.7667 40.225 91.1467 40 90.6967 39.55C90.2467 39.09 90.0217 38.435 90.0217 37.585V33.55H88.6417V32.155H90.0217V29.5H91.7467V32.155H94.0267V33.55H91.7467V37.405C91.7467 37.825 91.8317 38.15 92.0017 38.38C92.1817 38.6 92.4417 38.71 92.7817 38.71C92.9617 38.71 93.1567 38.685 93.3667 38.635C93.5767 38.575 93.7717 38.495 93.9517 38.395L94.3417 39.7C94.1117 39.86 93.8417 39.985 93.5317 40.075C93.2317 40.175 92.9067 40.225 92.5567 40.225ZM99.0168 40V29.35H102.242C103.092 29.35 103.817 29.49 104.417 29.77C105.027 30.05 105.492 30.45 105.812 30.97C106.142 31.49 106.307 32.12 106.307 32.86C106.307 33.56 106.137 34.175 105.797 34.705C105.457 35.225 104.977 35.63 104.357 35.92C103.737 36.2 103.007 36.34 102.167 36.34C101.967 36.34 101.752 36.33 101.522 36.31C101.302 36.29 101.067 36.265 100.817 36.235V40H99.0168ZM100.817 30.94V34.645C101.037 34.675 101.257 34.7 101.477 34.72C101.697 34.74 101.902 34.75 102.092 34.75C102.852 34.75 103.432 34.585 103.832 34.255C104.242 33.925 104.447 33.455 104.447 32.845C104.447 32.245 104.252 31.78 103.862 31.45C103.472 31.11 102.922 30.94 102.212 30.94H100.817ZM107.701 40V32.155H109.276L109.351 33.445C109.551 33.005 109.826 32.665 110.176 32.425C110.536 32.175 110.956 32.05 111.436 32.05C111.586 32.05 111.731 32.06 111.871 32.08C112.011 32.1 112.136 32.135 112.246 32.185L112.051 33.865C111.941 33.825 111.826 33.8 111.706 33.79C111.586 33.77 111.466 33.76 111.346 33.76C110.746 33.76 110.276 33.96 109.936 34.36C109.596 34.76 109.426 35.315 109.426 36.025V40H107.701ZM116.927 40.225C116.357 40.225 115.827 40.125 115.337 39.925C114.857 39.715 114.437 39.425 114.077 39.055C113.717 38.675 113.437 38.235 113.237 37.735C113.037 37.225 112.937 36.67 112.937 36.07C112.937 35.48 113.037 34.935 113.237 34.435C113.437 33.925 113.717 33.485 114.077 33.115C114.447 32.735 114.877 32.445 115.367 32.245C115.867 32.035 116.407 31.93 116.987 31.93C117.557 31.93 118.082 32.035 118.562 32.245C119.052 32.445 119.477 32.735 119.837 33.115C120.197 33.485 120.477 33.92 120.677 34.42C120.877 34.92 120.977 35.47 120.977 36.07C120.977 36.67 120.877 37.225 120.677 37.735C120.477 38.235 120.192 38.675 119.822 39.055C119.462 39.425 119.032 39.715 118.532 39.925C118.042 40.125 117.507 40.225 116.927 40.225ZM116.957 38.665C117.387 38.665 117.772 38.555 118.112 38.335C118.452 38.105 118.717 37.795 118.907 37.405C119.107 37.015 119.207 36.57 119.207 36.07C119.207 35.57 119.107 35.13 118.907 34.75C118.717 34.36 118.452 34.055 118.112 33.835C117.772 33.605 117.387 33.49 116.957 33.49C116.527 33.49 116.142 33.605 115.802 33.835C115.462 34.055 115.192 34.36 114.992 34.75C114.802 35.13 114.707 35.57 114.707 36.07C114.707 36.57 114.802 37.015 114.992 37.405C115.192 37.795 115.462 38.105 115.802 38.335C116.142 38.555 116.527 38.665 116.957 38.665ZM122.995 40V33.55H121.615V32.155H122.995V31.6C122.995 31.02 123.105 30.515 123.325 30.085C123.555 29.645 123.87 29.305 124.27 29.065C124.67 28.815 125.125 28.69 125.635 28.69C125.905 28.69 126.155 28.725 126.385 28.795C126.625 28.855 126.835 28.935 127.015 29.035L126.625 30.355C126.515 30.305 126.39 30.26 126.25 30.22C126.11 30.18 125.965 30.16 125.815 30.16C125.445 30.16 125.17 30.295 124.99 30.565C124.81 30.825 124.72 31.2 124.72 31.69V32.155H129.79V40H128.065V33.55H124.72V40H122.995ZM129.97 29.965C129.97 30.155 129.92 30.33 129.82 30.49C129.73 30.65 129.605 30.78 129.445 30.88C129.295 30.97 129.12 31.015 128.92 31.015C128.72 31.015 128.54 30.97 128.38 30.88C128.23 30.78 128.105 30.65 128.005 30.49C127.915 30.33 127.87 30.155 127.87 29.965C127.87 29.775 127.915 29.6 128.005 29.44C128.105 29.28 128.23 29.155 128.38 29.065C128.54 28.965 128.72 28.915 128.92 28.915C129.12 28.915 129.295 28.965 129.445 29.065C129.605 29.155 129.73 29.28 129.82 29.44C129.92 29.6 129.97 29.775 129.97 29.965ZM131.651 40V28.84H133.376V40H131.651ZM138.885 40.225C138.305 40.225 137.77 40.125 137.28 39.925C136.8 39.715 136.38 39.425 136.02 39.055C135.66 38.685 135.38 38.25 135.18 37.75C134.99 37.24 134.895 36.68 134.895 36.07C134.895 35.48 134.99 34.935 135.18 34.435C135.38 33.935 135.65 33.5 135.99 33.13C136.34 32.75 136.75 32.455 137.22 32.245C137.69 32.035 138.2 31.93 138.75 31.93C139.3 31.93 139.8 32.03 140.25 32.23C140.71 32.42 141.105 32.695 141.435 33.055C141.775 33.415 142.035 33.845 142.215 34.345C142.395 34.835 142.485 35.38 142.485 35.98V36.49H136.68C136.73 36.95 136.85 37.35 137.04 37.69C137.24 38.02 137.495 38.275 137.805 38.455C138.115 38.635 138.475 38.725 138.885 38.725C139.705 38.725 140.345 38.36 140.805 37.63L142.32 38.215C142.14 38.625 141.875 38.985 141.525 39.295C141.185 39.595 140.785 39.825 140.325 39.985C139.875 40.145 139.395 40.225 138.885 40.225ZM138.75 33.325C138.4 33.325 138.085 33.405 137.805 33.565C137.535 33.725 137.305 33.95 137.115 34.24C136.925 34.53 136.795 34.87 136.725 35.26H140.685C140.625 34.87 140.51 34.53 140.34 34.24C140.17 33.95 139.945 33.725 139.665 33.565C139.395 33.405 139.09 33.325 138.75 33.325Z" fill="white"/>
<path d="M47.9999 36.2499C49.2425 36.2499 50.2499 35.2426 50.2499 33.9999C50.2499 32.7573 49.2425 31.7499 47.9999 31.7499C46.7572 31.7499 45.7499 32.7573 45.7499 33.9999C45.7499 35.2426 46.7572 36.2499 47.9999 36.2499Z" stroke="white" stroke-width="1.5" stroke-linecap="round" stroke-linejoin="round"/>
<path d="M53.55 36.25C53.4502 36.4762 53.4204 36.7271 53.4645 36.9704C53.5086 37.2137 53.6246 37.4382 53.7975 37.615L53.8425 37.66C53.982 37.7993 54.0926 37.9647 54.1681 38.1468C54.2436 38.3289 54.2824 38.5241 54.2824 38.7213C54.2824 38.9184 54.2436 39.1136 54.1681 39.2957C54.0926 39.4778 53.982 39.6432 53.8425 39.7825C53.7032 39.922 53.5378 40.0326 53.3557 40.1081C53.1736 40.1836 52.9784 40.2224 52.7812 40.2224C52.5841 40.2224 52.3889 40.1836 52.2068 40.1081C52.0247 40.0326 51.8593 39.922 51.72 39.7825L51.675 39.7375C51.4982 39.5646 51.2737 39.4486 51.0304 39.4045C50.7871 39.3604 50.5362 39.3902 50.31 39.49C50.0882 39.5851 49.899 39.7429 49.7657 39.9442C49.6325 40.1454 49.561 40.3812 49.56 40.6225V40.75C49.56 41.1478 49.402 41.5294 49.1207 41.8107C48.8394 42.092 48.4578 42.25 48.06 42.25C47.6622 42.25 47.2806 42.092 46.9993 41.8107C46.718 41.5294 46.56 41.1478 46.56 40.75V40.6825C46.5542 40.4343 46.4738 40.1935 46.3294 39.9915C46.1849 39.7896 45.9831 39.6357 45.75 39.55C45.5238 39.4502 45.2729 39.4204 45.0296 39.4645C44.7863 39.5086 44.5618 39.6246 44.385 39.7975L44.34 39.8425C44.2007 39.982 44.0353 40.0926 43.8532 40.1681C43.6711 40.2436 43.4759 40.2824 43.2787 40.2824C43.0816 40.2824 42.8864 40.2436 42.7043 40.1681C42.5222 40.0926 42.3568 39.982 42.2175 39.8425C42.078 39.7032 41.9674 39.5378 41.8919 39.3557C41.8164 39.1736 41.7776 38.9784 41.7776 38.7812C41.7776 38.5841 41.8164 38.3889 41.8919 38.2068C41.9674 38.0247 42.078 37.8593 42.2175 37.72L42.2625 37.675C42.4354 37.4982 42.5514 37.2737 42.5955 37.0304C42.6396 36.7871 42.6098 36.5362 42.51 36.31C42.4149 36.0882 42.2571 35.899 42.0558 35.7657C41.8546 35.6325 41.6188 35.561 41.3775 35.56H41.25C40.8522 35.56 40.4706 35.402 40.1893 35.1207C39.908 34.8394 39.75 34.4578 39.75 34.06C39.75 33.6622 39.908 33.2806 40.1893 32.9993C40.4706 32.718 40.8522 32.56 41.25 32.56H41.3175C41.5657 32.5542 41.8065 32.4738 42.0085 32.3294C42.2104 32.1849 42.3643 31.9831 42.45 31.75C42.5498 31.5238 42.5796 31.2729 42.5355 31.0296C42.4914 30.7863 42.3754 30.5618 42.2025 30.385L42.1575 30.34C42.018 30.2007 41.9074 30.0353 41.8319 29.8532C41.7564 29.6711 41.7176 29.4759 41.7176 29.2787C41.7176 29.0816 41.7564 28.8864 41.8319 28.7043C41.9074 28.5222 42.018 28.3568 42.1575 28.2175C42.2968 28.078 42.4622 27.9674 42.6443 27.8919C42.8264 27.8164 43.0216 27.7776 43.2188 27.7776C43.4159 27.7776 43.6111 27.8164 43.7932 27.8919C43.9753 27.9674 44.1407 28.078 44.28 28.2175L44.325 28.2625C44.5018 28.4354 44.7263 28.5514 44.9696 28.5955C45.2129 28.6396 45.4638 28.6098 45.69 28.51H45.75C45.9718 28.4149 46.161 28.2571 46.2943 28.0558C46.4275 27.8546 46.499 27.6188 46.5 27.3775V27.25C46.5 26.8522 46.658 26.4706 46.9393 26.1893C47.2206 25.908 47.6022 25.75 48 25.75C48.3978 25.75 48.7794 25.908 49.0607 26.1893C49.342 26.4706 49.5 26.8522 49.5 27.25V27.3175C49.501 27.5588 49.5725 27.7946 49.7057 27.9958C49.839 28.1971 50.0282 28.3549 50.25 28.45C50.4762 28.5498 50.7271 28.5796 50.9704 28.5355C51.2137 28.4914 51.4382 28.3754 51.615 28.2025L51.66 28.1575C51.7993 28.018 51.9647 27.9074 52.1468 27.8319C52.3289 27.7564 52.5241 27.7176 52.7213 27.7176C52.9184 27.7176 53.1136 27.7564 53.2957 27.8319C53.4778 27.9074 53.6432 28.018 53.7825 28.1575C53.922 28.2968 54.0326 28.4622 54.1081 28.6443C54.1836 28.8264 54.2224 29.0216 54.2224 29.2188C54.2224 29.4159 54.1836 29.6111 54.1081 29.7932C54.0326 29.9753 53.922 30.1407 53.7825 30.28L53.7375 30.325C53.5646 30.5018 53.4486 30.7263 53.4045 30.9696C53.3604 31.2129 53.3902 31.4638 53.49 31.69V31.75C53.5851 31.9718 53.7429 32.161 53.9442 32.2943C54.1454 32.4275 54.3812 32.499 54.6225 32.5H54.75C55.1478 32.5 55.5294 32.658 55.8107 32.9393C56.092 33.2206 56.25 33.6022 56.25 34C56.25 34.3978 56.092 34.7794 55.8107 35.0607C55.5294 35.342 55.1478 35.5 54.75 35.5H54.6825C54.4412 35.501 54.2054 35.5725 54.0042 35.7057C53.8029 35.839 53.6451 36.0282 53.55 36.25V36.25Z" stroke="white" stroke-width="1.5" stroke-linecap="round" stroke-linejoin="round"/>
<defs>
<filter id="filter0_d" x="0" y="0" width="183" height="75" filterUnits="userSpaceOnUse" color-interpolation-filters="sRGB">
<feFlood flood-opacity="0" result="BackgroundImageFix"/>
<feColorMatrix in="SourceAlpha" type="matrix" values="0 0 0 0 0 0 0 0 0 0 0 0 0 0 0 0 0 0 127 0"/>
<feOffset dy="4"/>
<feGaussianBlur stdDeviation="7.5"/>
<feColorMatrix type="matrix" values="0 0 0 0 0 0 0 0 0 0 0 0 0 0 0 0 0 0 0.05 0"/>
<feBlend mode="normal" in2="BackgroundImageFix" result="effect1_dropShadow"/>
<feBlend mode="normal" in="SourceGraphic" in2="effect1_dropShadow" result="shape"/>
</filter>
<radialGradient id="paint0_radial" cx="0" cy="0" r="1" gradientUnits="userSpaceOnUse" gradientTransform="translate(170.211 53.7501) rotate(179.301) scale(184.41 1014.5)">
<stop stop-color="#6563EF"/>
<stop offset="1" stop-color="#4285F4"/>
</radialGradient>
</defs>
</svg>
