<svg width="183" height="75" viewBox="0 0 183 75" fill="none" xmlns="http://www.w3.org/2000/svg">
<g filter="url(#filter0_d)">
<rect x="15" y="11" width="153" height="45" rx="5" fill="url(#paint0_radial)"/>
</g>
<path d="M78.05 40V29.35H81.26C82.11 29.35 82.84 29.485 83.45 29.755C84.07 30.025 84.545 30.41 84.875 30.91C85.205 31.41 85.37 32.005 85.37 32.695C85.37 33.125 85.29 33.53 85.13 33.91C84.98 34.28 84.76 34.615 84.47 34.915C84.19 35.215 83.85 35.46 83.45 35.65L85.925 40H83.9L81.845 36.13C81.735 36.14 81.61 36.15 81.47 36.16C81.34 36.16 81.205 36.16 81.065 36.16C80.715 36.16 80.31 36.125 79.85 36.055V40H78.05ZM79.85 30.94V34.465C80.06 34.505 80.275 34.535 80.495 34.555C80.725 34.565 80.95 34.57 81.17 34.57C81.91 34.57 82.485 34.41 82.895 34.09C83.305 33.77 83.51 33.325 83.51 32.755C83.51 32.185 83.31 31.74 82.91 31.42C82.51 31.1 81.95 30.94 81.23 30.94H79.85ZM90.6717 40.225C90.0917 40.225 89.5567 40.125 89.0667 39.925C88.5867 39.715 88.1667 39.425 87.8067 39.055C87.4467 38.685 87.1667 38.25 86.9667 37.75C86.7767 37.24 86.6817 36.68 86.6817 36.07C86.6817 35.48 86.7767 34.935 86.9667 34.435C87.1667 33.935 87.4367 33.5 87.7767 33.13C88.1267 32.75 88.5367 32.455 89.0067 32.245C89.4767 32.035 89.9867 31.93 90.5367 31.93C91.0867 31.93 91.5867 32.03 92.0367 32.23C92.4967 32.42 92.8917 32.695 93.2217 33.055C93.5617 33.415 93.8217 33.845 94.0017 34.345C94.1817 34.835 94.2717 35.38 94.2717 35.98V36.49H88.4667C88.5167 36.95 88.6367 37.35 88.8267 37.69C89.0267 38.02 89.2817 38.275 89.5917 38.455C89.9017 38.635 90.2617 38.725 90.6717 38.725C91.4917 38.725 92.1317 38.36 92.5917 37.63L94.1067 38.215C93.9267 38.625 93.6617 38.985 93.3117 39.295C92.9717 39.595 92.5717 39.825 92.1117 39.985C91.6617 40.145 91.1817 40.225 90.6717 40.225ZM90.5367 33.325C90.1867 33.325 89.8717 33.405 89.5917 33.565C89.3217 33.725 89.0917 33.95 88.9017 34.24C88.7117 34.53 88.5817 34.87 88.5117 35.26H92.4717C92.4117 34.87 92.2967 34.53 92.1267 34.24C91.9567 33.95 91.7317 33.725 91.4517 33.565C91.1817 33.405 90.8767 33.325 90.5367 33.325ZM98.4861 40.225C97.9761 40.225 97.5011 40.14 97.0611 39.97C96.6311 39.8 96.2611 39.56 95.9511 39.25C95.6511 38.93 95.4361 38.555 95.3061 38.125L96.8661 37.72C96.9961 38.06 97.2061 38.325 97.4961 38.515C97.7861 38.705 98.1211 38.8 98.5011 38.8C98.8911 38.8 99.2111 38.71 99.4611 38.53C99.7111 38.34 99.8361 38.1 99.8361 37.81C99.8361 37.56 99.7361 37.35 99.5361 37.18C99.3361 37.01 99.0111 36.885 98.5611 36.805L98.0661 36.715C97.2261 36.565 96.5911 36.295 96.1611 35.905C95.7411 35.515 95.5311 35.015 95.5311 34.405C95.5311 33.915 95.6561 33.485 95.9061 33.115C96.1561 32.745 96.5011 32.455 96.9411 32.245C97.3811 32.035 97.8861 31.93 98.4561 31.93C98.9461 31.93 99.3961 32.015 99.8061 32.185C100.216 32.355 100.561 32.595 100.841 32.905C101.121 33.215 101.321 33.58 101.441 34L99.8961 34.375C99.7761 34.055 99.5861 33.805 99.3261 33.625C99.0761 33.435 98.7811 33.34 98.4411 33.34C98.0911 33.34 97.8011 33.43 97.5711 33.61C97.3411 33.78 97.2261 34 97.2261 34.27C97.2261 34.5 97.3261 34.69 97.5261 34.84C97.7361 34.99 98.0861 35.11 98.5761 35.2L99.0711 35.29C99.8711 35.43 100.486 35.705 100.916 36.115C101.346 36.525 101.561 37.035 101.561 37.645C101.561 38.015 101.486 38.36 101.336 38.68C101.186 38.99 100.971 39.265 100.691 39.505C100.421 39.735 100.096 39.91 99.7161 40.03C99.3461 40.16 98.9361 40.225 98.4861 40.225ZM106.429 40.225C105.729 40.225 105.119 40.075 104.599 39.775C104.089 39.475 103.689 39.05 103.399 38.5C103.119 37.94 102.979 37.285 102.979 36.535V32.155H104.704V36.565C104.704 37.215 104.859 37.73 105.169 38.11C105.479 38.48 105.904 38.665 106.444 38.665C106.984 38.665 107.409 38.48 107.719 38.11C108.029 37.73 108.184 37.215 108.184 36.565V32.155H109.909V36.535C109.909 37.275 109.764 37.925 109.474 38.485C109.194 39.035 108.794 39.465 108.274 39.775C107.754 40.075 107.139 40.225 106.429 40.225ZM111.768 40V32.155H113.343L113.403 33.205C113.633 32.815 113.948 32.505 114.348 32.275C114.748 32.045 115.203 31.93 115.713 31.93C116.263 31.93 116.748 32.07 117.168 32.35C117.588 32.62 117.913 32.995 118.143 33.475C118.293 33.165 118.493 32.895 118.743 32.665C119.003 32.435 119.303 32.255 119.643 32.125C119.993 31.995 120.368 31.93 120.768 31.93C121.348 31.93 121.853 32.07 122.283 32.35C122.713 32.62 123.043 33.01 123.273 33.52C123.513 34.02 123.633 34.62 123.633 35.32V40H121.908V35.515C121.908 34.865 121.768 34.365 121.488 34.015C121.208 33.665 120.823 33.49 120.333 33.49C119.993 33.49 119.688 33.575 119.418 33.745C119.158 33.905 118.948 34.135 118.788 34.435C118.638 34.725 118.563 35.055 118.563 35.425V40H116.838V35.515C116.838 34.865 116.698 34.365 116.418 34.015C116.138 33.665 115.753 33.49 115.263 33.49C114.923 33.49 114.618 33.575 114.348 33.745C114.088 33.905 113.878 34.135 113.718 34.435C113.568 34.725 113.493 35.055 113.493 35.425V40H111.768ZM129.138 40.225C128.558 40.225 128.023 40.125 127.533 39.925C127.053 39.715 126.633 39.425 126.273 39.055C125.913 38.685 125.633 38.25 125.433 37.75C125.243 37.24 125.148 36.68 125.148 36.07C125.148 35.48 125.243 34.935 125.433 34.435C125.633 33.935 125.903 33.5 126.243 33.13C126.593 32.75 127.003 32.455 127.473 32.245C127.943 32.035 128.453 31.93 129.003 31.93C129.553 31.93 130.053 32.03 130.503 32.23C130.963 32.42 131.358 32.695 131.688 33.055C132.028 33.415 132.288 33.845 132.468 34.345C132.648 34.835 132.738 35.38 132.738 35.98V36.49H126.933C126.983 36.95 127.103 37.35 127.293 37.69C127.493 38.02 127.748 38.275 128.058 38.455C128.368 38.635 128.728 38.725 129.138 38.725C129.958 38.725 130.598 38.36 131.058 37.63L132.573 38.215C132.393 38.625 132.128 38.985 131.778 39.295C131.438 39.595 131.038 39.825 130.578 39.985C130.128 40.145 129.648 40.225 129.138 40.225ZM129.003 33.325C128.653 33.325 128.338 33.405 128.058 33.565C127.788 33.725 127.558 33.95 127.368 34.24C127.178 34.53 127.048 34.87 126.978 35.26H130.938C130.878 34.87 130.763 34.53 130.593 34.24C130.423 33.95 130.198 33.725 129.918 33.565C129.648 33.405 129.343 33.325 129.003 33.325Z" fill="white"/>
<path d="M59.5 26.5001H53.5C53.1022 26.5001 52.7206 26.6581 52.4393 26.9394C52.158 27.2207 52 27.6022 52 28.0001V40.0001C52 40.3979 52.158 40.7794 52.4393 41.0607C52.7206 41.342 53.1022 41.5001 53.5 41.5001H62.5C62.8978 41.5001 63.2794 41.342 63.5607 41.0607C63.842 40.7794 64 40.3979 64 40.0001V31.0001L59.5 26.5001Z" stroke="white" stroke-width="1.5" stroke-linecap="round" stroke-linejoin="round"/>
<path d="M59.5 26.5001V31.0001H64" stroke="white" stroke-width="1.5" stroke-linecap="round" stroke-linejoin="round"/>
<path d="M61 34.7499H55" stroke="white" stroke-width="1.5" stroke-linecap="round" stroke-linejoin="round"/>
<path d="M61 37.7501H55" stroke="white" stroke-width="1.5" stroke-linecap="round" stroke-linejoin="round"/>
<path d="M56.5 31.75H55.75H55" stroke="white" stroke-width="1.5" stroke-linecap="round" stroke-linejoin="round"/>
<defs>
<filter id="filter0_d" x="0" y="0" width="183" height="75" filterUnits="userSpaceOnUse" color-interpolation-filters="sRGB">
<feFlood flood-opacity="0" result="BackgroundImageFix"/>
<feColorMatrix in="SourceAlpha" type="matrix" values="0 0 0 0 0 0 0 0 0 0 0 0 0 0 0 0 0 0 127 0"/>
<feOffset dy="4"/>
<feGaussianBlur stdDeviation="7.5"/>
<feColorMatrix type="matrix" values="0 0 0 0 0 0 0 0 0 0 0 0 0 0 0 0 0 0 0.05 0"/>
<feBlend mode="normal" in2="BackgroundImageFix" result="effect1_dropShadow"/>
<feBlend mode="normal" in="SourceGraphic" in2="effect1_dropShadow" result="shape"/>
</filter>
<radialGradient id="paint0_radial" cx="0" cy="0" r="1" gradientUnits="userSpaceOnUse" gradientTransform="translate(170.211 53.7501) rotate(179.301) scale(184.41 1014.5)">
<stop stop-color="#2A94CF"/>
<stop offset="1" stop-color="#20C1CB"/>
</radialGradient>
</defs>
</svg>
